%TF.GenerationSoftware,KiCad,Pcbnew,7.0.5*%
%TF.CreationDate,2023-06-10T01:43:31+05:30*%
%TF.ProjectId,OPEN ;AB,4f50454e-203b-4414-922e-6b696361645f,rev?*%
%TF.SameCoordinates,Original*%
%TF.FileFunction,Copper,L2,Bot*%
%TF.FilePolarity,Positive*%
%FSLAX46Y46*%
G04 Gerber Fmt 4.6, Leading zero omitted, Abs format (unit mm)*
G04 Created by KiCad (PCBNEW 7.0.5) date 2023-06-10 01:43:31*
%MOMM*%
%LPD*%
G01*
G04 APERTURE LIST*
%TA.AperFunction,ComponentPad*%
%ADD10C,1.400000*%
%TD*%
%TA.AperFunction,ComponentPad*%
%ADD11C,2.000000*%
%TD*%
%TA.AperFunction,ComponentPad*%
%ADD12C,3.000000*%
%TD*%
%TA.AperFunction,ComponentPad*%
%ADD13R,1.800000X2.600000*%
%TD*%
%TA.AperFunction,ComponentPad*%
%ADD14O,1.800000X2.600000*%
%TD*%
%TA.AperFunction,ComponentPad*%
%ADD15O,1.400000X1.400000*%
%TD*%
%TA.AperFunction,ComponentPad*%
%ADD16C,1.600000*%
%TD*%
G04 APERTURE END LIST*
D10*
%TO.P,J17,2,Pin_2*%
%TO.N,GND*%
X180546000Y-77216000D03*
%TO.P,J17,1,Pin_1*%
%TO.N,+5V*%
X180546000Y-74676000D03*
%TD*%
%TO.P,J16,2,Pin_2*%
%TO.N,GND*%
X180340000Y-86126000D03*
%TO.P,J16,1,Pin_1*%
%TO.N,+5V*%
X180340000Y-83586000D03*
%TD*%
D11*
%TO.P,J2,1,Pin_1*%
%TO.N,Net-(J2-Pin_1)*%
X116720000Y-60528000D03*
%TD*%
%TO.P,J15,1,Pin_1*%
%TO.N,Net-(DS1-D7)*%
X170060000Y-83896000D03*
%TD*%
%TO.P,J14,1,Pin_1*%
%TO.N,Net-(DS1-D6)*%
X165410000Y-83896000D03*
%TD*%
%TO.P,J13,1,Pin_1*%
%TO.N,Net-(DS1-D5)*%
X160760000Y-83896000D03*
%TD*%
%TO.P,J12,1,Pin_1*%
%TO.N,Net-(DS1-D4)*%
X155836000Y-84404000D03*
%TD*%
%TO.P,J11,1,Pin_1*%
%TO.N,Net-(DS1-D3)*%
X151186000Y-84404000D03*
%TD*%
%TO.P,J10,1,Pin_1*%
%TO.N,Net-(DS1-D2)*%
X146536000Y-84404000D03*
%TD*%
%TO.P,J9,1,Pin_1*%
%TO.N,Net-(DS1-D1)*%
X141612000Y-84404000D03*
%TD*%
%TO.P,J8,1,Pin_1*%
%TO.N,Net-(DS1-D0)*%
X136532000Y-84404000D03*
%TD*%
%TO.P,J7,1,Pin_1*%
%TO.N,Net-(DS1-E)*%
X131452000Y-84404000D03*
%TD*%
%TO.P,J6,1,Pin_1*%
%TO.N,Net-(DS1-RS)*%
X126372000Y-84404000D03*
%TD*%
%TO.P,J5,1,Pin_1*%
%TO.N,Net-(J5-Pin_1)*%
X162440000Y-61036000D03*
%TD*%
%TO.P,J4,1,Pin_1*%
%TO.N,Net-(J4-Pin_1)*%
X149232000Y-61036000D03*
%TD*%
%TO.P,J3,1,Pin_1*%
%TO.N,Net-(J3-Pin_1)*%
X135516000Y-61036000D03*
%TD*%
D12*
%TO.P,DS1,*%
%TO.N,*%
X188162580Y-124536000D03*
X113164000Y-93535300D03*
X113164000Y-124536000D03*
X188163100Y-93535300D03*
D13*
%TO.P,DS1,1,VSS*%
%TO.N,GND*%
X118663100Y-93535300D03*
D14*
%TO.P,DS1,2,VDD*%
%TO.N,+5V*%
X121203100Y-93535300D03*
%TO.P,DS1,3,VO*%
%TO.N,Net-(DS1-VO)*%
X123743100Y-93535300D03*
%TO.P,DS1,4,RS*%
%TO.N,Net-(DS1-RS)*%
X126283100Y-93535300D03*
%TO.P,DS1,5,R/W*%
%TO.N,GND*%
X128823100Y-93535300D03*
%TO.P,DS1,6,E*%
%TO.N,Net-(DS1-E)*%
X131363100Y-93535300D03*
%TO.P,DS1,7,D0*%
%TO.N,Net-(DS1-D0)*%
X133903100Y-93535300D03*
%TO.P,DS1,8,D1*%
%TO.N,Net-(DS1-D1)*%
X136443100Y-93535300D03*
%TO.P,DS1,9,D2*%
%TO.N,Net-(DS1-D2)*%
X138983100Y-93535300D03*
%TO.P,DS1,10,D3*%
%TO.N,Net-(DS1-D3)*%
X141523100Y-93535300D03*
%TO.P,DS1,11,D4*%
%TO.N,Net-(DS1-D4)*%
X144063100Y-93535300D03*
%TO.P,DS1,12,D5*%
%TO.N,Net-(DS1-D5)*%
X146603100Y-93535300D03*
%TO.P,DS1,13,D6*%
%TO.N,Net-(DS1-D6)*%
X149143100Y-93535300D03*
%TO.P,DS1,14,D7*%
%TO.N,Net-(DS1-D7)*%
X151683100Y-93535300D03*
%TO.P,DS1,15,LED(+)*%
%TO.N,Net-(DS1-LED(+))*%
X154223100Y-93535300D03*
%TO.P,DS1,16,LED(-)*%
%TO.N,GND*%
X156763100Y-93535300D03*
%TD*%
D10*
%TO.P,J1,1,Pin_1*%
%TO.N,+5V*%
X180340000Y-65532000D03*
%TO.P,J1,2,Pin_2*%
%TO.N,GND*%
X180340000Y-68072000D03*
%TD*%
%TO.P,R6,1*%
%TO.N,Net-(J5-Pin_1)*%
X162440000Y-68656000D03*
D15*
%TO.P,R6,2*%
%TO.N,GND*%
X157360000Y-68656000D03*
%TD*%
D10*
%TO.P,R5,1*%
%TO.N,Net-(J4-Pin_1)*%
X149232000Y-68656000D03*
D15*
%TO.P,R5,2*%
%TO.N,GND*%
X144152000Y-68656000D03*
%TD*%
D10*
%TO.P,R4,1*%
%TO.N,Net-(J3-Pin_1)*%
X135516000Y-68656000D03*
D15*
%TO.P,R4,2*%
%TO.N,GND*%
X130436000Y-68656000D03*
%TD*%
%TO.P,R3,2*%
%TO.N,GND*%
X121800000Y-68656000D03*
D10*
%TO.P,R3,1*%
%TO.N,Net-(J2-Pin_1)*%
X116720000Y-68656000D03*
%TD*%
D15*
%TO.P,R2,2*%
%TO.N,+5V*%
X175641000Y-83439000D03*
D10*
%TO.P,R2,1*%
%TO.N,Net-(DS1-LED(+))*%
X175641000Y-88519000D03*
%TD*%
%TO.P,R1,1*%
%TO.N,Net-(DS1-VO)*%
X122809000Y-84709000D03*
D15*
%TO.P,R1,2*%
%TO.N,GND*%
X122809000Y-79629000D03*
%TD*%
D16*
%TO.P,R10,1*%
%TO.N,+5V*%
X165488000Y-50368000D03*
%TO.P,R10,2*%
%TO.N,Net-(J5-Pin_1)*%
X157888000Y-50368000D03*
%TD*%
%TO.P,R9,1*%
%TO.N,+5V*%
X152016000Y-50368000D03*
%TO.P,R9,2*%
%TO.N,Net-(J4-Pin_1)*%
X144416000Y-50368000D03*
%TD*%
%TO.P,R8,1*%
%TO.N,+5V*%
X138564000Y-50368000D03*
%TO.P,R8,2*%
%TO.N,Net-(J3-Pin_1)*%
X130964000Y-50368000D03*
%TD*%
%TO.P,R7,2*%
%TO.N,Net-(J2-Pin_1)*%
X116740000Y-50368000D03*
%TO.P,R7,1*%
%TO.N,+5V*%
X124340000Y-50368000D03*
%TD*%
M02*
