%TF.GenerationSoftware,KiCad,Pcbnew,7.0.5*%
%TF.CreationDate,2023-06-10T01:43:31+05:30*%
%TF.ProjectId,OPEN ;AB,4f50454e-203b-4414-922e-6b696361645f,rev?*%
%TF.SameCoordinates,Original*%
%TF.FileFunction,Legend,Top*%
%TF.FilePolarity,Positive*%
%FSLAX46Y46*%
G04 Gerber Fmt 4.6, Leading zero omitted, Abs format (unit mm)*
G04 Created by KiCad (PCBNEW 7.0.5) date 2023-06-10 01:43:31*
%MOMM*%
%LPD*%
G01*
G04 APERTURE LIST*
%ADD10C,0.150000*%
%ADD11C,0.120000*%
G04 APERTURE END LIST*
D10*
%TO.C,J17*%
X182000819Y-76785523D02*
X182715104Y-76785523D01*
X182715104Y-76785523D02*
X182857961Y-76833142D01*
X182857961Y-76833142D02*
X182953200Y-76928380D01*
X182953200Y-76928380D02*
X183000819Y-77071237D01*
X183000819Y-77071237D02*
X183000819Y-77166475D01*
X183000819Y-75785523D02*
X183000819Y-76356951D01*
X183000819Y-76071237D02*
X182000819Y-76071237D01*
X182000819Y-76071237D02*
X182143676Y-76166475D01*
X182143676Y-76166475D02*
X182238914Y-76261713D01*
X182238914Y-76261713D02*
X182286533Y-76356951D01*
X182000819Y-75452189D02*
X182000819Y-74785523D01*
X182000819Y-74785523D02*
X183000819Y-75214094D01*
%TO.C,J16*%
X181794819Y-85695523D02*
X182509104Y-85695523D01*
X182509104Y-85695523D02*
X182651961Y-85743142D01*
X182651961Y-85743142D02*
X182747200Y-85838380D01*
X182747200Y-85838380D02*
X182794819Y-85981237D01*
X182794819Y-85981237D02*
X182794819Y-86076475D01*
X182794819Y-84695523D02*
X182794819Y-85266951D01*
X182794819Y-84981237D02*
X181794819Y-84981237D01*
X181794819Y-84981237D02*
X181937676Y-85076475D01*
X181937676Y-85076475D02*
X182032914Y-85171713D01*
X182032914Y-85171713D02*
X182080533Y-85266951D01*
X181794819Y-83838380D02*
X181794819Y-84028856D01*
X181794819Y-84028856D02*
X181842438Y-84124094D01*
X181842438Y-84124094D02*
X181890057Y-84171713D01*
X181890057Y-84171713D02*
X182032914Y-84266951D01*
X182032914Y-84266951D02*
X182223390Y-84314570D01*
X182223390Y-84314570D02*
X182604342Y-84314570D01*
X182604342Y-84314570D02*
X182699580Y-84266951D01*
X182699580Y-84266951D02*
X182747200Y-84219332D01*
X182747200Y-84219332D02*
X182794819Y-84124094D01*
X182794819Y-84124094D02*
X182794819Y-83933618D01*
X182794819Y-83933618D02*
X182747200Y-83838380D01*
X182747200Y-83838380D02*
X182699580Y-83790761D01*
X182699580Y-83790761D02*
X182604342Y-83743142D01*
X182604342Y-83743142D02*
X182366247Y-83743142D01*
X182366247Y-83743142D02*
X182271009Y-83790761D01*
X182271009Y-83790761D02*
X182223390Y-83838380D01*
X182223390Y-83838380D02*
X182175771Y-83933618D01*
X182175771Y-83933618D02*
X182175771Y-84124094D01*
X182175771Y-84124094D02*
X182223390Y-84219332D01*
X182223390Y-84219332D02*
X182271009Y-84266951D01*
X182271009Y-84266951D02*
X182366247Y-84314570D01*
%TO.C,J2*%
X118674819Y-60161333D02*
X119389104Y-60161333D01*
X119389104Y-60161333D02*
X119531961Y-60208952D01*
X119531961Y-60208952D02*
X119627200Y-60304190D01*
X119627200Y-60304190D02*
X119674819Y-60447047D01*
X119674819Y-60447047D02*
X119674819Y-60542285D01*
X118770057Y-59732761D02*
X118722438Y-59685142D01*
X118722438Y-59685142D02*
X118674819Y-59589904D01*
X118674819Y-59589904D02*
X118674819Y-59351809D01*
X118674819Y-59351809D02*
X118722438Y-59256571D01*
X118722438Y-59256571D02*
X118770057Y-59208952D01*
X118770057Y-59208952D02*
X118865295Y-59161333D01*
X118865295Y-59161333D02*
X118960533Y-59161333D01*
X118960533Y-59161333D02*
X119103390Y-59208952D01*
X119103390Y-59208952D02*
X119674819Y-59780380D01*
X119674819Y-59780380D02*
X119674819Y-59161333D01*
%TO.C,J15*%
X172014819Y-84005523D02*
X172729104Y-84005523D01*
X172729104Y-84005523D02*
X172871961Y-84053142D01*
X172871961Y-84053142D02*
X172967200Y-84148380D01*
X172967200Y-84148380D02*
X173014819Y-84291237D01*
X173014819Y-84291237D02*
X173014819Y-84386475D01*
X173014819Y-83005523D02*
X173014819Y-83576951D01*
X173014819Y-83291237D02*
X172014819Y-83291237D01*
X172014819Y-83291237D02*
X172157676Y-83386475D01*
X172157676Y-83386475D02*
X172252914Y-83481713D01*
X172252914Y-83481713D02*
X172300533Y-83576951D01*
X172014819Y-82100761D02*
X172014819Y-82576951D01*
X172014819Y-82576951D02*
X172491009Y-82624570D01*
X172491009Y-82624570D02*
X172443390Y-82576951D01*
X172443390Y-82576951D02*
X172395771Y-82481713D01*
X172395771Y-82481713D02*
X172395771Y-82243618D01*
X172395771Y-82243618D02*
X172443390Y-82148380D01*
X172443390Y-82148380D02*
X172491009Y-82100761D01*
X172491009Y-82100761D02*
X172586247Y-82053142D01*
X172586247Y-82053142D02*
X172824342Y-82053142D01*
X172824342Y-82053142D02*
X172919580Y-82100761D01*
X172919580Y-82100761D02*
X172967200Y-82148380D01*
X172967200Y-82148380D02*
X173014819Y-82243618D01*
X173014819Y-82243618D02*
X173014819Y-82481713D01*
X173014819Y-82481713D02*
X172967200Y-82576951D01*
X172967200Y-82576951D02*
X172919580Y-82624570D01*
%TO.C,J14*%
X167364819Y-84005523D02*
X168079104Y-84005523D01*
X168079104Y-84005523D02*
X168221961Y-84053142D01*
X168221961Y-84053142D02*
X168317200Y-84148380D01*
X168317200Y-84148380D02*
X168364819Y-84291237D01*
X168364819Y-84291237D02*
X168364819Y-84386475D01*
X168364819Y-83005523D02*
X168364819Y-83576951D01*
X168364819Y-83291237D02*
X167364819Y-83291237D01*
X167364819Y-83291237D02*
X167507676Y-83386475D01*
X167507676Y-83386475D02*
X167602914Y-83481713D01*
X167602914Y-83481713D02*
X167650533Y-83576951D01*
X167698152Y-82148380D02*
X168364819Y-82148380D01*
X167317200Y-82386475D02*
X168031485Y-82624570D01*
X168031485Y-82624570D02*
X168031485Y-82005523D01*
%TO.C,J13*%
X162714819Y-84005523D02*
X163429104Y-84005523D01*
X163429104Y-84005523D02*
X163571961Y-84053142D01*
X163571961Y-84053142D02*
X163667200Y-84148380D01*
X163667200Y-84148380D02*
X163714819Y-84291237D01*
X163714819Y-84291237D02*
X163714819Y-84386475D01*
X163714819Y-83005523D02*
X163714819Y-83576951D01*
X163714819Y-83291237D02*
X162714819Y-83291237D01*
X162714819Y-83291237D02*
X162857676Y-83386475D01*
X162857676Y-83386475D02*
X162952914Y-83481713D01*
X162952914Y-83481713D02*
X163000533Y-83576951D01*
X162714819Y-82672189D02*
X162714819Y-82053142D01*
X162714819Y-82053142D02*
X163095771Y-82386475D01*
X163095771Y-82386475D02*
X163095771Y-82243618D01*
X163095771Y-82243618D02*
X163143390Y-82148380D01*
X163143390Y-82148380D02*
X163191009Y-82100761D01*
X163191009Y-82100761D02*
X163286247Y-82053142D01*
X163286247Y-82053142D02*
X163524342Y-82053142D01*
X163524342Y-82053142D02*
X163619580Y-82100761D01*
X163619580Y-82100761D02*
X163667200Y-82148380D01*
X163667200Y-82148380D02*
X163714819Y-82243618D01*
X163714819Y-82243618D02*
X163714819Y-82529332D01*
X163714819Y-82529332D02*
X163667200Y-82624570D01*
X163667200Y-82624570D02*
X163619580Y-82672189D01*
%TO.C,J12*%
X157790819Y-84513523D02*
X158505104Y-84513523D01*
X158505104Y-84513523D02*
X158647961Y-84561142D01*
X158647961Y-84561142D02*
X158743200Y-84656380D01*
X158743200Y-84656380D02*
X158790819Y-84799237D01*
X158790819Y-84799237D02*
X158790819Y-84894475D01*
X158790819Y-83513523D02*
X158790819Y-84084951D01*
X158790819Y-83799237D02*
X157790819Y-83799237D01*
X157790819Y-83799237D02*
X157933676Y-83894475D01*
X157933676Y-83894475D02*
X158028914Y-83989713D01*
X158028914Y-83989713D02*
X158076533Y-84084951D01*
X157886057Y-83132570D02*
X157838438Y-83084951D01*
X157838438Y-83084951D02*
X157790819Y-82989713D01*
X157790819Y-82989713D02*
X157790819Y-82751618D01*
X157790819Y-82751618D02*
X157838438Y-82656380D01*
X157838438Y-82656380D02*
X157886057Y-82608761D01*
X157886057Y-82608761D02*
X157981295Y-82561142D01*
X157981295Y-82561142D02*
X158076533Y-82561142D01*
X158076533Y-82561142D02*
X158219390Y-82608761D01*
X158219390Y-82608761D02*
X158790819Y-83180189D01*
X158790819Y-83180189D02*
X158790819Y-82561142D01*
%TO.C,J11*%
X153140819Y-84513523D02*
X153855104Y-84513523D01*
X153855104Y-84513523D02*
X153997961Y-84561142D01*
X153997961Y-84561142D02*
X154093200Y-84656380D01*
X154093200Y-84656380D02*
X154140819Y-84799237D01*
X154140819Y-84799237D02*
X154140819Y-84894475D01*
X154140819Y-83513523D02*
X154140819Y-84084951D01*
X154140819Y-83799237D02*
X153140819Y-83799237D01*
X153140819Y-83799237D02*
X153283676Y-83894475D01*
X153283676Y-83894475D02*
X153378914Y-83989713D01*
X153378914Y-83989713D02*
X153426533Y-84084951D01*
X154140819Y-82561142D02*
X154140819Y-83132570D01*
X154140819Y-82846856D02*
X153140819Y-82846856D01*
X153140819Y-82846856D02*
X153283676Y-82942094D01*
X153283676Y-82942094D02*
X153378914Y-83037332D01*
X153378914Y-83037332D02*
X153426533Y-83132570D01*
%TO.C,J10*%
X148490819Y-84513523D02*
X149205104Y-84513523D01*
X149205104Y-84513523D02*
X149347961Y-84561142D01*
X149347961Y-84561142D02*
X149443200Y-84656380D01*
X149443200Y-84656380D02*
X149490819Y-84799237D01*
X149490819Y-84799237D02*
X149490819Y-84894475D01*
X149490819Y-83513523D02*
X149490819Y-84084951D01*
X149490819Y-83799237D02*
X148490819Y-83799237D01*
X148490819Y-83799237D02*
X148633676Y-83894475D01*
X148633676Y-83894475D02*
X148728914Y-83989713D01*
X148728914Y-83989713D02*
X148776533Y-84084951D01*
X148490819Y-82894475D02*
X148490819Y-82799237D01*
X148490819Y-82799237D02*
X148538438Y-82703999D01*
X148538438Y-82703999D02*
X148586057Y-82656380D01*
X148586057Y-82656380D02*
X148681295Y-82608761D01*
X148681295Y-82608761D02*
X148871771Y-82561142D01*
X148871771Y-82561142D02*
X149109866Y-82561142D01*
X149109866Y-82561142D02*
X149300342Y-82608761D01*
X149300342Y-82608761D02*
X149395580Y-82656380D01*
X149395580Y-82656380D02*
X149443200Y-82703999D01*
X149443200Y-82703999D02*
X149490819Y-82799237D01*
X149490819Y-82799237D02*
X149490819Y-82894475D01*
X149490819Y-82894475D02*
X149443200Y-82989713D01*
X149443200Y-82989713D02*
X149395580Y-83037332D01*
X149395580Y-83037332D02*
X149300342Y-83084951D01*
X149300342Y-83084951D02*
X149109866Y-83132570D01*
X149109866Y-83132570D02*
X148871771Y-83132570D01*
X148871771Y-83132570D02*
X148681295Y-83084951D01*
X148681295Y-83084951D02*
X148586057Y-83037332D01*
X148586057Y-83037332D02*
X148538438Y-82989713D01*
X148538438Y-82989713D02*
X148490819Y-82894475D01*
%TO.C,J9*%
X143566819Y-84037333D02*
X144281104Y-84037333D01*
X144281104Y-84037333D02*
X144423961Y-84084952D01*
X144423961Y-84084952D02*
X144519200Y-84180190D01*
X144519200Y-84180190D02*
X144566819Y-84323047D01*
X144566819Y-84323047D02*
X144566819Y-84418285D01*
X144566819Y-83513523D02*
X144566819Y-83323047D01*
X144566819Y-83323047D02*
X144519200Y-83227809D01*
X144519200Y-83227809D02*
X144471580Y-83180190D01*
X144471580Y-83180190D02*
X144328723Y-83084952D01*
X144328723Y-83084952D02*
X144138247Y-83037333D01*
X144138247Y-83037333D02*
X143757295Y-83037333D01*
X143757295Y-83037333D02*
X143662057Y-83084952D01*
X143662057Y-83084952D02*
X143614438Y-83132571D01*
X143614438Y-83132571D02*
X143566819Y-83227809D01*
X143566819Y-83227809D02*
X143566819Y-83418285D01*
X143566819Y-83418285D02*
X143614438Y-83513523D01*
X143614438Y-83513523D02*
X143662057Y-83561142D01*
X143662057Y-83561142D02*
X143757295Y-83608761D01*
X143757295Y-83608761D02*
X143995390Y-83608761D01*
X143995390Y-83608761D02*
X144090628Y-83561142D01*
X144090628Y-83561142D02*
X144138247Y-83513523D01*
X144138247Y-83513523D02*
X144185866Y-83418285D01*
X144185866Y-83418285D02*
X144185866Y-83227809D01*
X144185866Y-83227809D02*
X144138247Y-83132571D01*
X144138247Y-83132571D02*
X144090628Y-83084952D01*
X144090628Y-83084952D02*
X143995390Y-83037333D01*
%TO.C,J8*%
X138486819Y-84037333D02*
X139201104Y-84037333D01*
X139201104Y-84037333D02*
X139343961Y-84084952D01*
X139343961Y-84084952D02*
X139439200Y-84180190D01*
X139439200Y-84180190D02*
X139486819Y-84323047D01*
X139486819Y-84323047D02*
X139486819Y-84418285D01*
X138915390Y-83418285D02*
X138867771Y-83513523D01*
X138867771Y-83513523D02*
X138820152Y-83561142D01*
X138820152Y-83561142D02*
X138724914Y-83608761D01*
X138724914Y-83608761D02*
X138677295Y-83608761D01*
X138677295Y-83608761D02*
X138582057Y-83561142D01*
X138582057Y-83561142D02*
X138534438Y-83513523D01*
X138534438Y-83513523D02*
X138486819Y-83418285D01*
X138486819Y-83418285D02*
X138486819Y-83227809D01*
X138486819Y-83227809D02*
X138534438Y-83132571D01*
X138534438Y-83132571D02*
X138582057Y-83084952D01*
X138582057Y-83084952D02*
X138677295Y-83037333D01*
X138677295Y-83037333D02*
X138724914Y-83037333D01*
X138724914Y-83037333D02*
X138820152Y-83084952D01*
X138820152Y-83084952D02*
X138867771Y-83132571D01*
X138867771Y-83132571D02*
X138915390Y-83227809D01*
X138915390Y-83227809D02*
X138915390Y-83418285D01*
X138915390Y-83418285D02*
X138963009Y-83513523D01*
X138963009Y-83513523D02*
X139010628Y-83561142D01*
X139010628Y-83561142D02*
X139105866Y-83608761D01*
X139105866Y-83608761D02*
X139296342Y-83608761D01*
X139296342Y-83608761D02*
X139391580Y-83561142D01*
X139391580Y-83561142D02*
X139439200Y-83513523D01*
X139439200Y-83513523D02*
X139486819Y-83418285D01*
X139486819Y-83418285D02*
X139486819Y-83227809D01*
X139486819Y-83227809D02*
X139439200Y-83132571D01*
X139439200Y-83132571D02*
X139391580Y-83084952D01*
X139391580Y-83084952D02*
X139296342Y-83037333D01*
X139296342Y-83037333D02*
X139105866Y-83037333D01*
X139105866Y-83037333D02*
X139010628Y-83084952D01*
X139010628Y-83084952D02*
X138963009Y-83132571D01*
X138963009Y-83132571D02*
X138915390Y-83227809D01*
%TO.C,J7*%
X133406819Y-84037333D02*
X134121104Y-84037333D01*
X134121104Y-84037333D02*
X134263961Y-84084952D01*
X134263961Y-84084952D02*
X134359200Y-84180190D01*
X134359200Y-84180190D02*
X134406819Y-84323047D01*
X134406819Y-84323047D02*
X134406819Y-84418285D01*
X133406819Y-83656380D02*
X133406819Y-82989714D01*
X133406819Y-82989714D02*
X134406819Y-83418285D01*
%TO.C,J6*%
X128326819Y-84037333D02*
X129041104Y-84037333D01*
X129041104Y-84037333D02*
X129183961Y-84084952D01*
X129183961Y-84084952D02*
X129279200Y-84180190D01*
X129279200Y-84180190D02*
X129326819Y-84323047D01*
X129326819Y-84323047D02*
X129326819Y-84418285D01*
X128326819Y-83132571D02*
X128326819Y-83323047D01*
X128326819Y-83323047D02*
X128374438Y-83418285D01*
X128374438Y-83418285D02*
X128422057Y-83465904D01*
X128422057Y-83465904D02*
X128564914Y-83561142D01*
X128564914Y-83561142D02*
X128755390Y-83608761D01*
X128755390Y-83608761D02*
X129136342Y-83608761D01*
X129136342Y-83608761D02*
X129231580Y-83561142D01*
X129231580Y-83561142D02*
X129279200Y-83513523D01*
X129279200Y-83513523D02*
X129326819Y-83418285D01*
X129326819Y-83418285D02*
X129326819Y-83227809D01*
X129326819Y-83227809D02*
X129279200Y-83132571D01*
X129279200Y-83132571D02*
X129231580Y-83084952D01*
X129231580Y-83084952D02*
X129136342Y-83037333D01*
X129136342Y-83037333D02*
X128898247Y-83037333D01*
X128898247Y-83037333D02*
X128803009Y-83084952D01*
X128803009Y-83084952D02*
X128755390Y-83132571D01*
X128755390Y-83132571D02*
X128707771Y-83227809D01*
X128707771Y-83227809D02*
X128707771Y-83418285D01*
X128707771Y-83418285D02*
X128755390Y-83513523D01*
X128755390Y-83513523D02*
X128803009Y-83561142D01*
X128803009Y-83561142D02*
X128898247Y-83608761D01*
%TO.C,J5*%
X164394819Y-60669333D02*
X165109104Y-60669333D01*
X165109104Y-60669333D02*
X165251961Y-60716952D01*
X165251961Y-60716952D02*
X165347200Y-60812190D01*
X165347200Y-60812190D02*
X165394819Y-60955047D01*
X165394819Y-60955047D02*
X165394819Y-61050285D01*
X164394819Y-59716952D02*
X164394819Y-60193142D01*
X164394819Y-60193142D02*
X164871009Y-60240761D01*
X164871009Y-60240761D02*
X164823390Y-60193142D01*
X164823390Y-60193142D02*
X164775771Y-60097904D01*
X164775771Y-60097904D02*
X164775771Y-59859809D01*
X164775771Y-59859809D02*
X164823390Y-59764571D01*
X164823390Y-59764571D02*
X164871009Y-59716952D01*
X164871009Y-59716952D02*
X164966247Y-59669333D01*
X164966247Y-59669333D02*
X165204342Y-59669333D01*
X165204342Y-59669333D02*
X165299580Y-59716952D01*
X165299580Y-59716952D02*
X165347200Y-59764571D01*
X165347200Y-59764571D02*
X165394819Y-59859809D01*
X165394819Y-59859809D02*
X165394819Y-60097904D01*
X165394819Y-60097904D02*
X165347200Y-60193142D01*
X165347200Y-60193142D02*
X165299580Y-60240761D01*
%TO.C,J4*%
X151186819Y-60669333D02*
X151901104Y-60669333D01*
X151901104Y-60669333D02*
X152043961Y-60716952D01*
X152043961Y-60716952D02*
X152139200Y-60812190D01*
X152139200Y-60812190D02*
X152186819Y-60955047D01*
X152186819Y-60955047D02*
X152186819Y-61050285D01*
X151520152Y-59764571D02*
X152186819Y-59764571D01*
X151139200Y-60002666D02*
X151853485Y-60240761D01*
X151853485Y-60240761D02*
X151853485Y-59621714D01*
%TO.C,J3*%
X137470819Y-60669333D02*
X138185104Y-60669333D01*
X138185104Y-60669333D02*
X138327961Y-60716952D01*
X138327961Y-60716952D02*
X138423200Y-60812190D01*
X138423200Y-60812190D02*
X138470819Y-60955047D01*
X138470819Y-60955047D02*
X138470819Y-61050285D01*
X137470819Y-60288380D02*
X137470819Y-59669333D01*
X137470819Y-59669333D02*
X137851771Y-60002666D01*
X137851771Y-60002666D02*
X137851771Y-59859809D01*
X137851771Y-59859809D02*
X137899390Y-59764571D01*
X137899390Y-59764571D02*
X137947009Y-59716952D01*
X137947009Y-59716952D02*
X138042247Y-59669333D01*
X138042247Y-59669333D02*
X138280342Y-59669333D01*
X138280342Y-59669333D02*
X138375580Y-59716952D01*
X138375580Y-59716952D02*
X138423200Y-59764571D01*
X138423200Y-59764571D02*
X138470819Y-59859809D01*
X138470819Y-59859809D02*
X138470819Y-60145523D01*
X138470819Y-60145523D02*
X138423200Y-60240761D01*
X138423200Y-60240761D02*
X138375580Y-60288380D01*
%TO.C,DS1*%
X111628814Y-90180119D02*
X111628814Y-89180119D01*
X111628814Y-89180119D02*
X111866909Y-89180119D01*
X111866909Y-89180119D02*
X112009766Y-89227738D01*
X112009766Y-89227738D02*
X112105004Y-89322976D01*
X112105004Y-89322976D02*
X112152623Y-89418214D01*
X112152623Y-89418214D02*
X112200242Y-89608690D01*
X112200242Y-89608690D02*
X112200242Y-89751547D01*
X112200242Y-89751547D02*
X112152623Y-89942023D01*
X112152623Y-89942023D02*
X112105004Y-90037261D01*
X112105004Y-90037261D02*
X112009766Y-90132500D01*
X112009766Y-90132500D02*
X111866909Y-90180119D01*
X111866909Y-90180119D02*
X111628814Y-90180119D01*
X112581195Y-90132500D02*
X112724052Y-90180119D01*
X112724052Y-90180119D02*
X112962147Y-90180119D01*
X112962147Y-90180119D02*
X113057385Y-90132500D01*
X113057385Y-90132500D02*
X113105004Y-90084880D01*
X113105004Y-90084880D02*
X113152623Y-89989642D01*
X113152623Y-89989642D02*
X113152623Y-89894404D01*
X113152623Y-89894404D02*
X113105004Y-89799166D01*
X113105004Y-89799166D02*
X113057385Y-89751547D01*
X113057385Y-89751547D02*
X112962147Y-89703928D01*
X112962147Y-89703928D02*
X112771671Y-89656309D01*
X112771671Y-89656309D02*
X112676433Y-89608690D01*
X112676433Y-89608690D02*
X112628814Y-89561071D01*
X112628814Y-89561071D02*
X112581195Y-89465833D01*
X112581195Y-89465833D02*
X112581195Y-89370595D01*
X112581195Y-89370595D02*
X112628814Y-89275357D01*
X112628814Y-89275357D02*
X112676433Y-89227738D01*
X112676433Y-89227738D02*
X112771671Y-89180119D01*
X112771671Y-89180119D02*
X113009766Y-89180119D01*
X113009766Y-89180119D02*
X113152623Y-89227738D01*
X114105004Y-90180119D02*
X113533576Y-90180119D01*
X113819290Y-90180119D02*
X113819290Y-89180119D01*
X113819290Y-89180119D02*
X113724052Y-89322976D01*
X113724052Y-89322976D02*
X113628814Y-89418214D01*
X113628814Y-89418214D02*
X113533576Y-89465833D01*
%TO.C,J1*%
X181794819Y-67165333D02*
X182509104Y-67165333D01*
X182509104Y-67165333D02*
X182651961Y-67212952D01*
X182651961Y-67212952D02*
X182747200Y-67308190D01*
X182747200Y-67308190D02*
X182794819Y-67451047D01*
X182794819Y-67451047D02*
X182794819Y-67546285D01*
X182794819Y-66165333D02*
X182794819Y-66736761D01*
X182794819Y-66451047D02*
X181794819Y-66451047D01*
X181794819Y-66451047D02*
X181937676Y-66546285D01*
X181937676Y-66546285D02*
X182032914Y-66641523D01*
X182032914Y-66641523D02*
X182080533Y-66736761D01*
%TO.C,R6*%
X159733333Y-71030819D02*
X159400000Y-70554628D01*
X159161905Y-71030819D02*
X159161905Y-70030819D01*
X159161905Y-70030819D02*
X159542857Y-70030819D01*
X159542857Y-70030819D02*
X159638095Y-70078438D01*
X159638095Y-70078438D02*
X159685714Y-70126057D01*
X159685714Y-70126057D02*
X159733333Y-70221295D01*
X159733333Y-70221295D02*
X159733333Y-70364152D01*
X159733333Y-70364152D02*
X159685714Y-70459390D01*
X159685714Y-70459390D02*
X159638095Y-70507009D01*
X159638095Y-70507009D02*
X159542857Y-70554628D01*
X159542857Y-70554628D02*
X159161905Y-70554628D01*
X160590476Y-70030819D02*
X160400000Y-70030819D01*
X160400000Y-70030819D02*
X160304762Y-70078438D01*
X160304762Y-70078438D02*
X160257143Y-70126057D01*
X160257143Y-70126057D02*
X160161905Y-70268914D01*
X160161905Y-70268914D02*
X160114286Y-70459390D01*
X160114286Y-70459390D02*
X160114286Y-70840342D01*
X160114286Y-70840342D02*
X160161905Y-70935580D01*
X160161905Y-70935580D02*
X160209524Y-70983200D01*
X160209524Y-70983200D02*
X160304762Y-71030819D01*
X160304762Y-71030819D02*
X160495238Y-71030819D01*
X160495238Y-71030819D02*
X160590476Y-70983200D01*
X160590476Y-70983200D02*
X160638095Y-70935580D01*
X160638095Y-70935580D02*
X160685714Y-70840342D01*
X160685714Y-70840342D02*
X160685714Y-70602247D01*
X160685714Y-70602247D02*
X160638095Y-70507009D01*
X160638095Y-70507009D02*
X160590476Y-70459390D01*
X160590476Y-70459390D02*
X160495238Y-70411771D01*
X160495238Y-70411771D02*
X160304762Y-70411771D01*
X160304762Y-70411771D02*
X160209524Y-70459390D01*
X160209524Y-70459390D02*
X160161905Y-70507009D01*
X160161905Y-70507009D02*
X160114286Y-70602247D01*
%TO.C,R5*%
X146525333Y-71030819D02*
X146192000Y-70554628D01*
X145953905Y-71030819D02*
X145953905Y-70030819D01*
X145953905Y-70030819D02*
X146334857Y-70030819D01*
X146334857Y-70030819D02*
X146430095Y-70078438D01*
X146430095Y-70078438D02*
X146477714Y-70126057D01*
X146477714Y-70126057D02*
X146525333Y-70221295D01*
X146525333Y-70221295D02*
X146525333Y-70364152D01*
X146525333Y-70364152D02*
X146477714Y-70459390D01*
X146477714Y-70459390D02*
X146430095Y-70507009D01*
X146430095Y-70507009D02*
X146334857Y-70554628D01*
X146334857Y-70554628D02*
X145953905Y-70554628D01*
X147430095Y-70030819D02*
X146953905Y-70030819D01*
X146953905Y-70030819D02*
X146906286Y-70507009D01*
X146906286Y-70507009D02*
X146953905Y-70459390D01*
X146953905Y-70459390D02*
X147049143Y-70411771D01*
X147049143Y-70411771D02*
X147287238Y-70411771D01*
X147287238Y-70411771D02*
X147382476Y-70459390D01*
X147382476Y-70459390D02*
X147430095Y-70507009D01*
X147430095Y-70507009D02*
X147477714Y-70602247D01*
X147477714Y-70602247D02*
X147477714Y-70840342D01*
X147477714Y-70840342D02*
X147430095Y-70935580D01*
X147430095Y-70935580D02*
X147382476Y-70983200D01*
X147382476Y-70983200D02*
X147287238Y-71030819D01*
X147287238Y-71030819D02*
X147049143Y-71030819D01*
X147049143Y-71030819D02*
X146953905Y-70983200D01*
X146953905Y-70983200D02*
X146906286Y-70935580D01*
%TO.C,R4*%
X132809333Y-71030819D02*
X132476000Y-70554628D01*
X132237905Y-71030819D02*
X132237905Y-70030819D01*
X132237905Y-70030819D02*
X132618857Y-70030819D01*
X132618857Y-70030819D02*
X132714095Y-70078438D01*
X132714095Y-70078438D02*
X132761714Y-70126057D01*
X132761714Y-70126057D02*
X132809333Y-70221295D01*
X132809333Y-70221295D02*
X132809333Y-70364152D01*
X132809333Y-70364152D02*
X132761714Y-70459390D01*
X132761714Y-70459390D02*
X132714095Y-70507009D01*
X132714095Y-70507009D02*
X132618857Y-70554628D01*
X132618857Y-70554628D02*
X132237905Y-70554628D01*
X133666476Y-70364152D02*
X133666476Y-71030819D01*
X133428381Y-69983200D02*
X133190286Y-70697485D01*
X133190286Y-70697485D02*
X133809333Y-70697485D01*
%TO.C,R3*%
X119093333Y-67190819D02*
X118760000Y-66714628D01*
X118521905Y-67190819D02*
X118521905Y-66190819D01*
X118521905Y-66190819D02*
X118902857Y-66190819D01*
X118902857Y-66190819D02*
X118998095Y-66238438D01*
X118998095Y-66238438D02*
X119045714Y-66286057D01*
X119045714Y-66286057D02*
X119093333Y-66381295D01*
X119093333Y-66381295D02*
X119093333Y-66524152D01*
X119093333Y-66524152D02*
X119045714Y-66619390D01*
X119045714Y-66619390D02*
X118998095Y-66667009D01*
X118998095Y-66667009D02*
X118902857Y-66714628D01*
X118902857Y-66714628D02*
X118521905Y-66714628D01*
X119426667Y-66190819D02*
X120045714Y-66190819D01*
X120045714Y-66190819D02*
X119712381Y-66571771D01*
X119712381Y-66571771D02*
X119855238Y-66571771D01*
X119855238Y-66571771D02*
X119950476Y-66619390D01*
X119950476Y-66619390D02*
X119998095Y-66667009D01*
X119998095Y-66667009D02*
X120045714Y-66762247D01*
X120045714Y-66762247D02*
X120045714Y-67000342D01*
X120045714Y-67000342D02*
X119998095Y-67095580D01*
X119998095Y-67095580D02*
X119950476Y-67143200D01*
X119950476Y-67143200D02*
X119855238Y-67190819D01*
X119855238Y-67190819D02*
X119569524Y-67190819D01*
X119569524Y-67190819D02*
X119474286Y-67143200D01*
X119474286Y-67143200D02*
X119426667Y-67095580D01*
%TO.C,R2*%
X174175819Y-86145666D02*
X173699628Y-86478999D01*
X174175819Y-86717094D02*
X173175819Y-86717094D01*
X173175819Y-86717094D02*
X173175819Y-86336142D01*
X173175819Y-86336142D02*
X173223438Y-86240904D01*
X173223438Y-86240904D02*
X173271057Y-86193285D01*
X173271057Y-86193285D02*
X173366295Y-86145666D01*
X173366295Y-86145666D02*
X173509152Y-86145666D01*
X173509152Y-86145666D02*
X173604390Y-86193285D01*
X173604390Y-86193285D02*
X173652009Y-86240904D01*
X173652009Y-86240904D02*
X173699628Y-86336142D01*
X173699628Y-86336142D02*
X173699628Y-86717094D01*
X173271057Y-85764713D02*
X173223438Y-85717094D01*
X173223438Y-85717094D02*
X173175819Y-85621856D01*
X173175819Y-85621856D02*
X173175819Y-85383761D01*
X173175819Y-85383761D02*
X173223438Y-85288523D01*
X173223438Y-85288523D02*
X173271057Y-85240904D01*
X173271057Y-85240904D02*
X173366295Y-85193285D01*
X173366295Y-85193285D02*
X173461533Y-85193285D01*
X173461533Y-85193285D02*
X173604390Y-85240904D01*
X173604390Y-85240904D02*
X174175819Y-85812332D01*
X174175819Y-85812332D02*
X174175819Y-85193285D01*
%TO.C,R1*%
X121343819Y-82335666D02*
X120867628Y-82668999D01*
X121343819Y-82907094D02*
X120343819Y-82907094D01*
X120343819Y-82907094D02*
X120343819Y-82526142D01*
X120343819Y-82526142D02*
X120391438Y-82430904D01*
X120391438Y-82430904D02*
X120439057Y-82383285D01*
X120439057Y-82383285D02*
X120534295Y-82335666D01*
X120534295Y-82335666D02*
X120677152Y-82335666D01*
X120677152Y-82335666D02*
X120772390Y-82383285D01*
X120772390Y-82383285D02*
X120820009Y-82430904D01*
X120820009Y-82430904D02*
X120867628Y-82526142D01*
X120867628Y-82526142D02*
X120867628Y-82907094D01*
X121343819Y-81383285D02*
X121343819Y-81954713D01*
X121343819Y-81668999D02*
X120343819Y-81668999D01*
X120343819Y-81668999D02*
X120486676Y-81764237D01*
X120486676Y-81764237D02*
X120581914Y-81859475D01*
X120581914Y-81859475D02*
X120629533Y-81954713D01*
%TO.C,R10*%
X161045142Y-56022819D02*
X160711809Y-55546628D01*
X160473714Y-56022819D02*
X160473714Y-55022819D01*
X160473714Y-55022819D02*
X160854666Y-55022819D01*
X160854666Y-55022819D02*
X160949904Y-55070438D01*
X160949904Y-55070438D02*
X160997523Y-55118057D01*
X160997523Y-55118057D02*
X161045142Y-55213295D01*
X161045142Y-55213295D02*
X161045142Y-55356152D01*
X161045142Y-55356152D02*
X160997523Y-55451390D01*
X160997523Y-55451390D02*
X160949904Y-55499009D01*
X160949904Y-55499009D02*
X160854666Y-55546628D01*
X160854666Y-55546628D02*
X160473714Y-55546628D01*
X161997523Y-56022819D02*
X161426095Y-56022819D01*
X161711809Y-56022819D02*
X161711809Y-55022819D01*
X161711809Y-55022819D02*
X161616571Y-55165676D01*
X161616571Y-55165676D02*
X161521333Y-55260914D01*
X161521333Y-55260914D02*
X161426095Y-55308533D01*
X162616571Y-55022819D02*
X162711809Y-55022819D01*
X162711809Y-55022819D02*
X162807047Y-55070438D01*
X162807047Y-55070438D02*
X162854666Y-55118057D01*
X162854666Y-55118057D02*
X162902285Y-55213295D01*
X162902285Y-55213295D02*
X162949904Y-55403771D01*
X162949904Y-55403771D02*
X162949904Y-55641866D01*
X162949904Y-55641866D02*
X162902285Y-55832342D01*
X162902285Y-55832342D02*
X162854666Y-55927580D01*
X162854666Y-55927580D02*
X162807047Y-55975200D01*
X162807047Y-55975200D02*
X162711809Y-56022819D01*
X162711809Y-56022819D02*
X162616571Y-56022819D01*
X162616571Y-56022819D02*
X162521333Y-55975200D01*
X162521333Y-55975200D02*
X162473714Y-55927580D01*
X162473714Y-55927580D02*
X162426095Y-55832342D01*
X162426095Y-55832342D02*
X162378476Y-55641866D01*
X162378476Y-55641866D02*
X162378476Y-55403771D01*
X162378476Y-55403771D02*
X162426095Y-55213295D01*
X162426095Y-55213295D02*
X162473714Y-55118057D01*
X162473714Y-55118057D02*
X162521333Y-55070438D01*
X162521333Y-55070438D02*
X162616571Y-55022819D01*
%TO.C,R9*%
X148049333Y-56022819D02*
X147716000Y-55546628D01*
X147477905Y-56022819D02*
X147477905Y-55022819D01*
X147477905Y-55022819D02*
X147858857Y-55022819D01*
X147858857Y-55022819D02*
X147954095Y-55070438D01*
X147954095Y-55070438D02*
X148001714Y-55118057D01*
X148001714Y-55118057D02*
X148049333Y-55213295D01*
X148049333Y-55213295D02*
X148049333Y-55356152D01*
X148049333Y-55356152D02*
X148001714Y-55451390D01*
X148001714Y-55451390D02*
X147954095Y-55499009D01*
X147954095Y-55499009D02*
X147858857Y-55546628D01*
X147858857Y-55546628D02*
X147477905Y-55546628D01*
X148525524Y-56022819D02*
X148716000Y-56022819D01*
X148716000Y-56022819D02*
X148811238Y-55975200D01*
X148811238Y-55975200D02*
X148858857Y-55927580D01*
X148858857Y-55927580D02*
X148954095Y-55784723D01*
X148954095Y-55784723D02*
X149001714Y-55594247D01*
X149001714Y-55594247D02*
X149001714Y-55213295D01*
X149001714Y-55213295D02*
X148954095Y-55118057D01*
X148954095Y-55118057D02*
X148906476Y-55070438D01*
X148906476Y-55070438D02*
X148811238Y-55022819D01*
X148811238Y-55022819D02*
X148620762Y-55022819D01*
X148620762Y-55022819D02*
X148525524Y-55070438D01*
X148525524Y-55070438D02*
X148477905Y-55118057D01*
X148477905Y-55118057D02*
X148430286Y-55213295D01*
X148430286Y-55213295D02*
X148430286Y-55451390D01*
X148430286Y-55451390D02*
X148477905Y-55546628D01*
X148477905Y-55546628D02*
X148525524Y-55594247D01*
X148525524Y-55594247D02*
X148620762Y-55641866D01*
X148620762Y-55641866D02*
X148811238Y-55641866D01*
X148811238Y-55641866D02*
X148906476Y-55594247D01*
X148906476Y-55594247D02*
X148954095Y-55546628D01*
X148954095Y-55546628D02*
X149001714Y-55451390D01*
%TO.C,R8*%
X134597333Y-56022819D02*
X134264000Y-55546628D01*
X134025905Y-56022819D02*
X134025905Y-55022819D01*
X134025905Y-55022819D02*
X134406857Y-55022819D01*
X134406857Y-55022819D02*
X134502095Y-55070438D01*
X134502095Y-55070438D02*
X134549714Y-55118057D01*
X134549714Y-55118057D02*
X134597333Y-55213295D01*
X134597333Y-55213295D02*
X134597333Y-55356152D01*
X134597333Y-55356152D02*
X134549714Y-55451390D01*
X134549714Y-55451390D02*
X134502095Y-55499009D01*
X134502095Y-55499009D02*
X134406857Y-55546628D01*
X134406857Y-55546628D02*
X134025905Y-55546628D01*
X135168762Y-55451390D02*
X135073524Y-55403771D01*
X135073524Y-55403771D02*
X135025905Y-55356152D01*
X135025905Y-55356152D02*
X134978286Y-55260914D01*
X134978286Y-55260914D02*
X134978286Y-55213295D01*
X134978286Y-55213295D02*
X135025905Y-55118057D01*
X135025905Y-55118057D02*
X135073524Y-55070438D01*
X135073524Y-55070438D02*
X135168762Y-55022819D01*
X135168762Y-55022819D02*
X135359238Y-55022819D01*
X135359238Y-55022819D02*
X135454476Y-55070438D01*
X135454476Y-55070438D02*
X135502095Y-55118057D01*
X135502095Y-55118057D02*
X135549714Y-55213295D01*
X135549714Y-55213295D02*
X135549714Y-55260914D01*
X135549714Y-55260914D02*
X135502095Y-55356152D01*
X135502095Y-55356152D02*
X135454476Y-55403771D01*
X135454476Y-55403771D02*
X135359238Y-55451390D01*
X135359238Y-55451390D02*
X135168762Y-55451390D01*
X135168762Y-55451390D02*
X135073524Y-55499009D01*
X135073524Y-55499009D02*
X135025905Y-55546628D01*
X135025905Y-55546628D02*
X134978286Y-55641866D01*
X134978286Y-55641866D02*
X134978286Y-55832342D01*
X134978286Y-55832342D02*
X135025905Y-55927580D01*
X135025905Y-55927580D02*
X135073524Y-55975200D01*
X135073524Y-55975200D02*
X135168762Y-56022819D01*
X135168762Y-56022819D02*
X135359238Y-56022819D01*
X135359238Y-56022819D02*
X135454476Y-55975200D01*
X135454476Y-55975200D02*
X135502095Y-55927580D01*
X135502095Y-55927580D02*
X135549714Y-55832342D01*
X135549714Y-55832342D02*
X135549714Y-55641866D01*
X135549714Y-55641866D02*
X135502095Y-55546628D01*
X135502095Y-55546628D02*
X135454476Y-55499009D01*
X135454476Y-55499009D02*
X135359238Y-55451390D01*
%TO.C,R7*%
X120373333Y-56022819D02*
X120040000Y-55546628D01*
X119801905Y-56022819D02*
X119801905Y-55022819D01*
X119801905Y-55022819D02*
X120182857Y-55022819D01*
X120182857Y-55022819D02*
X120278095Y-55070438D01*
X120278095Y-55070438D02*
X120325714Y-55118057D01*
X120325714Y-55118057D02*
X120373333Y-55213295D01*
X120373333Y-55213295D02*
X120373333Y-55356152D01*
X120373333Y-55356152D02*
X120325714Y-55451390D01*
X120325714Y-55451390D02*
X120278095Y-55499009D01*
X120278095Y-55499009D02*
X120182857Y-55546628D01*
X120182857Y-55546628D02*
X119801905Y-55546628D01*
X120706667Y-55022819D02*
X121373333Y-55022819D01*
X121373333Y-55022819D02*
X120944762Y-56022819D01*
%TO.C,J17*%
X179646000Y-77746000D02*
X179646000Y-74146000D01*
X180946000Y-78246000D02*
X180146000Y-78246000D01*
X180146000Y-73646000D02*
X180946000Y-73646000D01*
X179646000Y-74146000D02*
X180146000Y-73646000D01*
X181446000Y-74146000D02*
X181446000Y-77746000D01*
X181446000Y-77746000D02*
X180946000Y-78246000D01*
X180146000Y-78246000D02*
X179646000Y-77746000D01*
X180946000Y-73646000D02*
X181446000Y-74146000D01*
%TO.C,J16*%
X179440000Y-86656000D02*
X179440000Y-83056000D01*
X180740000Y-87156000D02*
X179940000Y-87156000D01*
X179940000Y-82556000D02*
X180740000Y-82556000D01*
X179440000Y-83056000D02*
X179940000Y-82556000D01*
X181240000Y-83056000D02*
X181240000Y-86656000D01*
X181240000Y-86656000D02*
X180740000Y-87156000D01*
X179940000Y-87156000D02*
X179440000Y-86656000D01*
X180740000Y-82556000D02*
X181240000Y-83056000D01*
D11*
%TO.C,J2*%
X118220000Y-60528000D02*
G75*
G03*
X118220000Y-60528000I-1500000J0D01*
G01*
%TO.C,J15*%
X171560000Y-83896000D02*
G75*
G03*
X171560000Y-83896000I-1500000J0D01*
G01*
%TO.C,J14*%
X166910000Y-83896000D02*
G75*
G03*
X166910000Y-83896000I-1500000J0D01*
G01*
%TO.C,J13*%
X162260000Y-83896000D02*
G75*
G03*
X162260000Y-83896000I-1500000J0D01*
G01*
%TO.C,J12*%
X157336000Y-84404000D02*
G75*
G03*
X157336000Y-84404000I-1500000J0D01*
G01*
%TO.C,J11*%
X152686000Y-84404000D02*
G75*
G03*
X152686000Y-84404000I-1500000J0D01*
G01*
%TO.C,J10*%
X148036000Y-84404000D02*
G75*
G03*
X148036000Y-84404000I-1500000J0D01*
G01*
%TO.C,J9*%
X143112000Y-84404000D02*
G75*
G03*
X143112000Y-84404000I-1500000J0D01*
G01*
%TO.C,J8*%
X138032000Y-84404000D02*
G75*
G03*
X138032000Y-84404000I-1500000J0D01*
G01*
%TO.C,J7*%
X132952000Y-84404000D02*
G75*
G03*
X132952000Y-84404000I-1500000J0D01*
G01*
%TO.C,J6*%
X127872000Y-84404000D02*
G75*
G03*
X127872000Y-84404000I-1500000J0D01*
G01*
%TO.C,J5*%
X163940000Y-61036000D02*
G75*
G03*
X163940000Y-61036000I-1500000J0D01*
G01*
%TO.C,J4*%
X150732000Y-61036000D02*
G75*
G03*
X150732000Y-61036000I-1500000J0D01*
G01*
%TO.C,J3*%
X137016000Y-61036000D02*
G75*
G03*
X137016000Y-61036000I-1500000J0D01*
G01*
%TO.C,DS1*%
X113663100Y-96535300D02*
X186663100Y-96535300D01*
X190803100Y-127175300D02*
X190803100Y-90895300D01*
X110523100Y-127175300D02*
X190803100Y-127175300D01*
X110523100Y-90895300D02*
X110523100Y-127175300D01*
X182363760Y-116535300D02*
X118863100Y-116535300D01*
X110533100Y-90895300D02*
X111323100Y-90895300D01*
X118363380Y-116034620D02*
X118363380Y-102035300D01*
X190803100Y-90895300D02*
X111323100Y-90895300D01*
X186663100Y-96535300D02*
X186663100Y-121535300D01*
X186663100Y-121535300D02*
X113663100Y-121535300D01*
X182863100Y-102035300D02*
X182863100Y-116035300D01*
X118863100Y-101535300D02*
X182363100Y-101535300D01*
X117163100Y-90535300D02*
X120163100Y-90535300D01*
X113663100Y-121535300D02*
X113663100Y-96535300D01*
X118863760Y-101533760D02*
G75*
G03*
X118363380Y-102034140I0J-500380D01*
G01*
X118363380Y-116034620D02*
G75*
G03*
X118863760Y-116535000I500380J0D01*
G01*
X182363760Y-116534940D02*
G75*
G03*
X182864140Y-116034620I40J500340D01*
G01*
X182863100Y-102035300D02*
G75*
G03*
X182363100Y-101535300I-500000J0D01*
G01*
D10*
%TO.C,J1*%
X180740000Y-64502000D02*
X181240000Y-65002000D01*
X179940000Y-69102000D02*
X179440000Y-68602000D01*
X181240000Y-68602000D02*
X180740000Y-69102000D01*
X181240000Y-65002000D02*
X181240000Y-68602000D01*
X179440000Y-65002000D02*
X179940000Y-64502000D01*
X179940000Y-64502000D02*
X180740000Y-64502000D01*
X180740000Y-69102000D02*
X179940000Y-69102000D01*
X179440000Y-68602000D02*
X179440000Y-65002000D01*
D11*
%TO.C,R6*%
X161820000Y-67736000D02*
X157980000Y-67736000D01*
X161820000Y-69576000D02*
X157980000Y-69576000D01*
%TO.C,R5*%
X148612000Y-67736000D02*
X144772000Y-67736000D01*
X148612000Y-69576000D02*
X144772000Y-69576000D01*
%TO.C,R4*%
X134896000Y-67736000D02*
X131056000Y-67736000D01*
X134896000Y-69576000D02*
X131056000Y-69576000D01*
%TO.C,R3*%
X117340000Y-67736000D02*
X121180000Y-67736000D01*
X117340000Y-69576000D02*
X121180000Y-69576000D01*
%TO.C,R2*%
X174721000Y-87899000D02*
X174721000Y-84059000D01*
X176561000Y-87899000D02*
X176561000Y-84059000D01*
%TO.C,R1*%
X123729000Y-84089000D02*
X123729000Y-80249000D01*
X121889000Y-84089000D02*
X121889000Y-80249000D01*
%TO.C,R10*%
X164688000Y-45968000D02*
X158688000Y-45968000D01*
X164688000Y-54768000D02*
X158688000Y-54768000D01*
X164720650Y-54745560D02*
G75*
G03*
X164688000Y-45968001I-3032650J4377560D01*
G01*
X158655350Y-45990440D02*
G75*
G03*
X158688000Y-54767999I3032650J-4377560D01*
G01*
%TO.C,R9*%
X151216000Y-45968000D02*
X145216000Y-45968000D01*
X151216000Y-54768000D02*
X145216000Y-54768000D01*
X151248650Y-54745560D02*
G75*
G03*
X151216000Y-45968001I-3032650J4377560D01*
G01*
X145183350Y-45990440D02*
G75*
G03*
X145216000Y-54767999I3032650J-4377560D01*
G01*
%TO.C,R8*%
X137764000Y-45968000D02*
X131764000Y-45968000D01*
X137764000Y-54768000D02*
X131764000Y-54768000D01*
X137796650Y-54745560D02*
G75*
G03*
X137764000Y-45968001I-3032650J4377560D01*
G01*
X131731350Y-45990440D02*
G75*
G03*
X131764000Y-54767999I3032650J-4377560D01*
G01*
%TO.C,R7*%
X117507350Y-45990440D02*
G75*
G03*
X117540000Y-54767999I3032650J-4377560D01*
G01*
X123572650Y-54745560D02*
G75*
G03*
X123540000Y-45968001I-3032650J4377560D01*
G01*
X123540000Y-54768000D02*
X117540000Y-54768000D01*
X123540000Y-45968000D02*
X117540000Y-45968000D01*
%TD*%
M02*
