%TF.GenerationSoftware,KiCad,Pcbnew,7.0.5*%
%TF.CreationDate,2023-06-10T01:43:31+05:30*%
%TF.ProjectId,OPEN ;AB,4f50454e-203b-4414-922e-6b696361645f,rev?*%
%TF.SameCoordinates,Original*%
%TF.FileFunction,Soldermask,Bot*%
%TF.FilePolarity,Negative*%
%FSLAX46Y46*%
G04 Gerber Fmt 4.6, Leading zero omitted, Abs format (unit mm)*
G04 Created by KiCad (PCBNEW 7.0.5) date 2023-06-10 01:43:31*
%MOMM*%
%LPD*%
G01*
G04 APERTURE LIST*
%ADD10C,1.400000*%
%ADD11C,2.000000*%
%ADD12C,3.000000*%
%ADD13R,1.800000X2.600000*%
%ADD14O,1.800000X2.600000*%
%ADD15O,1.400000X1.400000*%
%ADD16C,1.600000*%
G04 APERTURE END LIST*
D10*
%TO.C,J17*%
X180546000Y-77216000D03*
X180546000Y-74676000D03*
%TD*%
%TO.C,J16*%
X180340000Y-86126000D03*
X180340000Y-83586000D03*
%TD*%
D11*
%TO.C,J2*%
X116720000Y-60528000D03*
%TD*%
%TO.C,J15*%
X170060000Y-83896000D03*
%TD*%
%TO.C,J14*%
X165410000Y-83896000D03*
%TD*%
%TO.C,J13*%
X160760000Y-83896000D03*
%TD*%
%TO.C,J12*%
X155836000Y-84404000D03*
%TD*%
%TO.C,J11*%
X151186000Y-84404000D03*
%TD*%
%TO.C,J10*%
X146536000Y-84404000D03*
%TD*%
%TO.C,J9*%
X141612000Y-84404000D03*
%TD*%
%TO.C,J8*%
X136532000Y-84404000D03*
%TD*%
%TO.C,J7*%
X131452000Y-84404000D03*
%TD*%
%TO.C,J6*%
X126372000Y-84404000D03*
%TD*%
%TO.C,J5*%
X162440000Y-61036000D03*
%TD*%
%TO.C,J4*%
X149232000Y-61036000D03*
%TD*%
%TO.C,J3*%
X135516000Y-61036000D03*
%TD*%
D12*
%TO.C,DS1*%
X188162580Y-124536000D03*
X113164000Y-93535300D03*
X113164000Y-124536000D03*
X188163100Y-93535300D03*
D13*
X118663100Y-93535300D03*
D14*
X121203100Y-93535300D03*
X123743100Y-93535300D03*
X126283100Y-93535300D03*
X128823100Y-93535300D03*
X131363100Y-93535300D03*
X133903100Y-93535300D03*
X136443100Y-93535300D03*
X138983100Y-93535300D03*
X141523100Y-93535300D03*
X144063100Y-93535300D03*
X146603100Y-93535300D03*
X149143100Y-93535300D03*
X151683100Y-93535300D03*
X154223100Y-93535300D03*
X156763100Y-93535300D03*
%TD*%
D10*
%TO.C,J1*%
X180340000Y-65532000D03*
X180340000Y-68072000D03*
%TD*%
%TO.C,R6*%
X162440000Y-68656000D03*
D15*
X157360000Y-68656000D03*
%TD*%
D10*
%TO.C,R5*%
X149232000Y-68656000D03*
D15*
X144152000Y-68656000D03*
%TD*%
D10*
%TO.C,R4*%
X135516000Y-68656000D03*
D15*
X130436000Y-68656000D03*
%TD*%
%TO.C,R3*%
X121800000Y-68656000D03*
D10*
X116720000Y-68656000D03*
%TD*%
D15*
%TO.C,R2*%
X175641000Y-83439000D03*
D10*
X175641000Y-88519000D03*
%TD*%
%TO.C,R1*%
X122809000Y-84709000D03*
D15*
X122809000Y-79629000D03*
%TD*%
D16*
%TO.C,R10*%
X165488000Y-50368000D03*
X157888000Y-50368000D03*
%TD*%
%TO.C,R9*%
X152016000Y-50368000D03*
X144416000Y-50368000D03*
%TD*%
%TO.C,R8*%
X138564000Y-50368000D03*
X130964000Y-50368000D03*
%TD*%
%TO.C,R7*%
X116740000Y-50368000D03*
X124340000Y-50368000D03*
%TD*%
M02*
