M48
; DRILL file {KiCad 7.0.5} date Sat Jun 10 01:43:44 2023
; FORMAT={-:-/ absolute / inch / decimal}
; #@! TF.CreationDate,2023-06-10T01:43:44+05:30
; #@! TF.GenerationSoftware,Kicad,Pcbnew,7.0.5
; #@! TF.FileFunction,Plated,1,2,PTH
FMAT,2
INCH
; #@! TA.AperFunction,Plated,PTH,ComponentDrill
T1C0.0276
; #@! TA.AperFunction,Plated,PTH,ComponentDrill
T2C0.0315
; #@! TA.AperFunction,Plated,PTH,ComponentDrill
T3C0.0394
; #@! TA.AperFunction,Plated,PTH,ComponentDrill
T4C0.0472
; #@! TA.AperFunction,Plated,PTH,ComponentDrill
T5C0.0984
%
G90
G05
T1
X4.5953Y-2.703
X4.7953Y-2.703
X4.835Y-3.135
X4.835Y-3.335
X5.1353Y-2.703
X5.3353Y-2.703
X5.6753Y-2.703
X5.8753Y-2.703
X6.1953Y-2.703
X6.3953Y-2.703
X6.915Y-3.285
X6.915Y-3.485
T2
X4.5961Y-1.983
X4.8953Y-1.983
X5.1561Y-1.983
X5.4553Y-1.983
X5.6857Y-1.983
X5.9849Y-1.983
X6.2161Y-1.983
X6.5153Y-1.983
X7.1Y-2.58
X7.1Y-2.68
X7.1Y-3.2908
X7.1Y-3.3908
X7.1081Y-2.94
X7.1081Y-3.04
T3
X4.5953Y-2.383
X4.9753Y-3.323
X5.1753Y-3.323
X5.3353Y-2.403
X5.3753Y-3.323
X5.5753Y-3.323
X5.7691Y-3.323
X5.8753Y-2.403
X5.9522Y-3.323
X6.1353Y-3.323
X6.3291Y-3.303
X6.3953Y-2.403
X6.5122Y-3.303
X6.6953Y-3.303
T4
X4.6718Y-3.6825
X4.7718Y-3.6825
X4.8718Y-3.6825
X4.9718Y-3.6825
X5.0718Y-3.6825
X5.1718Y-3.6825
X5.2718Y-3.6825
X5.3718Y-3.6825
X5.4718Y-3.6825
X5.5718Y-3.6825
X5.6718Y-3.6825
X5.7718Y-3.6825
X5.8718Y-3.6825
X5.9718Y-3.6825
X6.0718Y-3.6825
X6.1718Y-3.6825
T5
X4.4553Y-3.6825
X4.4553Y-4.903
X7.408Y-4.903
X7.408Y-3.6825
T0
M30
